{
  "accessors": [
    {
      "bufferView": 1,
      "componentType": 5126,
      "count": 65532,
      "max": [
        1.226840615272522,
        0.8430531620979309,
        2.5514824390411377
      ],
      "min": [
        -1.2190977334976196,
        -1.0543547868728638,
        -2.189568281173706
      ],
      "type": "VEC3"
    },
    {
      "bufferView": 1,
      "byteOffset": 786384,
      "componentType": 5126,
      "count": 65532,
      "max": [
        0.999995768070221,
        0.9999992847442627,
        0.9999992251396179
      ],
      "min": [
        -0.9999980330467224,
        -0.9999998807907104,
        -0.999997615814209
      ],
      "type": "VEC3"
    },
    {
      "bufferView": 0,
      "componentType": 5125,
      "count": 318699,
      "type": "SCALAR"
    },
    {
      "bufferView": 1,
      "byteOffset": 1572768,
      "componentType": 5126,
      "count": 65532,
      "max": [
        1.225342035293579,
        0.9329847693443298,
        2.516625165939331
      ],
      "min": [
        -1.2152951955795288,
        -1.0543570518493652,
        -2.18963885307312
      ],
      "type": "VEC3"
    },
    {
      "bufferView": 1,
      "byteOffset": 2359152,
      "componentType": 5126,
      "count": 65532,
      "max": [
        0.999994158744812,
        0.9999806880950928,
        1.0
      ],
      "min": [
        -0.9999747276306152,
        -0.9999951124191284,
        -1.0
      ],
      "type": "VEC3"
    },
    {
      "bufferView": 0,
      "byteOffset": 1274796,
      "componentType": 5125,
      "count": 310572,
      "type": "SCALAR"
    },
    {
      "bufferView": 1,
      "byteOffset": 3145536,
      "componentType": 5126,
      "count": 65532,
      "max": [
        1.1988593339920044,
        0.9190288782119751,
        2.565642833709717
      ],
      "min": [
        -1.2224165201187134,
        -1.0540400743484497,
        -2.190056085586548
      ],
      "type": "VEC3"
    },
    {
      "bufferView": 1,
      "byteOffset": 3931920,
      "componentType": 5126,
      "count": 65532,
      "max": [
        0.9999997615814209,
        0.9999971985816956,
        1.0
      ],
      "min": [
        -0.9999939799308777,
        -0.999974250793457,
        -0.9999991655349731
      ],
      "type": "VEC3"
    },
    {
      "bufferView": 0,
      "byteOffset": 2517084,
      "componentType": 5125,
      "count": 314379,
      "type": "SCALAR"
    },
    {
      "bufferView": 1,
      "byteOffset": 4718304,
      "componentType": 5126,
      "count": 65532,
      "max": [
        1.2244325876235962,
        0.9318503141403198,
        2.5599942207336426
      ],
      "min": [
        -1.2271182537078857,
        -1.0541874170303345,
        -2.1901302337646484
      ],
      "type": "VEC3"
    },
    {
      "bufferView": 1,
      "byteOffset": 5504688,
      "componentType": 5126,
      "count": 65532,
      "max": [
        0.9999879598617554,
        0.9999971985816956,
        1.0
      ],
      "min": [
        -0.9999900460243225,
        -0.9999799728393555,
        -1.0
      ],
      "type": "VEC3"
    },
    {
      "bufferView": 0,
      "byteOffset": 3774600,
      "componentType": 5125,
      "count": 308301,
      "type": "SCALAR"
    },
    {
      "bufferView": 1,
      "byteOffset": 6291072,
      "componentType": 5126,
      "count": 65532,
      "max": [
        1.2270698547363281,
        0.9329847693443298,
        2.5652616024017334
      ],
      "min": [
        -1.2076958417892456,
        -1.054317831993103,
        -2.1901204586029053
      ],
      "type": "VEC3"
    },
    {
      "bufferView": 1,
      "byteOffset": 7077456,
      "componentType": 5126,
      "count": 65532,
      "max": [
        0.9999879598617554,
        0.9999964237213135,
        1.0
      ],
      "min": [
        -0.9999909400939941,
        -0.9999998211860657,
        -1.0
      ],
      "type": "VEC3"
    },
    {
      "bufferView": 0,
      "byteOffset": 5007804,
      "componentType": 5125,
      "count": 266154,
      "type": "SCALAR"
    },
    {
      "bufferView": 1,
      "byteOffset": 7863840,
      "componentType": 5126,
      "count": 65532,
      "max": [
        1.2264617681503296,
        0.9329847693443298,
        2.561682939529419
      ],
      "min": [
        -1.2158292531967163,
        -1.0543570518493652,
        -2.1901280879974365
      ],
      "type": "VEC3"
    },
    {
      "bufferView": 1,
      "byteOffset": 8650224,
      "componentType": 5126,
      "count": 65532,
      "max": [
        0.9999440908432007,
        0.9999889135360718,
        1.0
      ],
      "min": [
        -0.9998979568481445,
        -0.9999842643737793,
        -1.0
      ],
      "type": "VEC3"
    },
    {
      "bufferView": 0,
      "byteOffset": 6072420,
      "componentType": 5125,
      "count": 140625,
      "type": "SCALAR"
    },
    {
      "bufferView": 1,
      "byteOffset": 9436608,
      "componentType": 5126,
      "count": 9686,
      "max": [
        1.2050752639770508,
        0.9328103065490723,
        2.5580337047576904
      ],
      "min": [
        -1.2271182537078857,
        -1.054259181022644,
        -2.189955472946167
      ],
      "type": "VEC3"
    },
    {
      "bufferView": 1,
      "byteOffset": 9552840,
      "componentType": 5126,
      "count": 9686,
      "max": [
        0.9996218681335449,
        0.9999175667762756,
        1.0
      ],
      "min": [
        -0.9999445676803589,
        -0.9999623894691467,
        -1.0
      ],
      "type": "VEC3"
    },
    {
      "bufferView": 0,
      "byteOffset": 6634920,
      "componentType": 5125,
      "count": 11820,
      "type": "SCALAR"
    }
  ],
  "asset": {
    "extras": {
      "author": "Slava_Gedich (https://sketchfab.com/Slava_Gedich)",
      "license": "CC-BY-4.0 (http://creativecommons.org/licenses/by/4.0/)",
      "source": "https://sketchfab.com/3d-models/planeshapes-malefigure-7b0f8605bd7d4f6fa1e5db68f7f46526",
      "title": "PlaneShapes_MaleFigure"
    },
    "generator": "Sketchfab-16.65.0",
    "version": "2.0"
  },
  "bufferViews": [
    {
      "buffer": 0,
      "byteLength": 6682200,
      "name": "floatBufferViews",
      "target": 34963
    },
    {
      "buffer": 0,
      "byteLength": 9669072,
      "byteOffset": 6682200,
      "byteStride": 12,
      "name": "floatBufferViews",
      "target": 34962
    }
  ],
  "buffers": [
    {
      "byteLength": 16351272,
      "uri": "scene.bin"
    }
  ],
  "extensionsUsed": [
    "KHR_materials_specular"
  ],
  "materials": [
    {
      "doubleSided": true,
      "extensions": {
        "KHR_materials_specular": {
          "specularColorFactor": [
            1.0,
            1.0,
            1.0
          ],
          "specularFactor": 0.7969548097670393
        }
      },
      "name": "material_0",
      "pbrMetallicRoughness": {
        "baseColorFactor": [
          0.41469125739764906,
          0.4984237107954935,
          0.5830405017641959,
          1.0
        ],
        "metallicFactor": 0.0,
        "roughnessFactor": 0.4678109495190842
      }
    }
  ],
  "meshes": [
    {
      "name": "Object_0",
      "primitives": [
        {
          "attributes": {
            "NORMAL": 1,
            "POSITION": 0
          },
          "indices": 2,
          "material": 0,
          "mode": 4
        }
      ]
    },
    {
      "name": "Object_1",
      "primitives": [
        {
          "attributes": {
            "NORMAL": 4,
            "POSITION": 3
          },
          "indices": 5,
          "material": 0,
          "mode": 4
        }
      ]
    },
    {
      "name": "Object_2",
      "primitives": [
        {
          "attributes": {
            "NORMAL": 7,
            "POSITION": 6
          },
          "indices": 8,
          "material": 0,
          "mode": 4
        }
      ]
    },
    {
      "name": "Object_3",
      "primitives": [
        {
          "attributes": {
            "NORMAL": 10,
            "POSITION": 9
          },
          "indices": 11,
          "material": 0,
          "mode": 4
        }
      ]
    },
    {
      "name": "Object_4",
      "primitives": [
        {
          "attributes": {
            "NORMAL": 13,
            "POSITION": 12
          },
          "indices": 14,
          "material": 0,
          "mode": 4
        }
      ]
    },
    {
      "name": "Object_5",
      "primitives": [
        {
          "attributes": {
            "NORMAL": 16,
            "POSITION": 15
          },
          "indices": 17,
          "material": 0,
          "mode": 4
        }
      ]
    },
    {
      "name": "Object_6",
      "primitives": [
        {
          "attributes": {
            "NORMAL": 19,
            "POSITION": 18
          },
          "indices": 20,
          "material": 0,
          "mode": 4
        }
      ]
    }
  ],
  "nodes": [
    {
      "children": [
        1
      ],
      "matrix": [
        1.0,
        0.0,
        0.0,
        0.0,
        0.0,
        2.220446049250313e-16,
        -1.0,
        0.0,
        0.0,
        1.0,
        2.220446049250313e-16,
        0.0,
        0.0,
        0.0,
        0.0,
        1.0
      ],
      "name": "Sketchfab_model"
    },
    {
      "children": [
        2,
        3,
        4,
        5,
        6,
        7,
        8
      ],
      "name": "Gedich_PlaneShapes_MaleFigure_Decimated.obj.cleaner.materialmerger.gles"
    },
    {
      "mesh": 0,
      "name": "Object_2"
    },
    {
      "mesh": 1,
      "name": "Object_3"
    },
    {
      "mesh": 2,
      "name": "Object_4"
    },
    {
      "mesh": 3,
      "name": "Object_5"
    },
    {
      "mesh": 4,
      "name": "Object_6"
    },
    {
      "mesh": 5,
      "name": "Object_7"
    },
    {
      "mesh": 6,
      "name": "Object_8"
    }
  ],
  "scene": 0,
  "scenes": [
    {
      "name": "Sketchfab_Scene",
      "nodes": [
        0
      ]
    }
  ]
}
