{
  "accessors": [
    {
      "bufferView": 2,
      "componentType": 5126,
      "count": 65532,
      "max": [
        0.5134729743003845,
        0.20795099437236786,
        0.3898969888687134
      ],
      "min": [
        0.09177199751138687,
        -0.3057439923286438,
        -0.43136298656463623
      ],
      "type": "VEC3"
    },
    {
      "bufferView": 2,
      "byteOffset": 786384,
      "componentType": 5126,
      "count": 65532,
      "max": [
        0.9999923706054688,
        0.9999582767486572,
        0.9990571737289429
      ],
      "min": [
        -0.9960782527923584,
        -0.9999749660491943,
        -0.9999287724494934
      ],
      "type": "VEC3"
    },
    {
      "bufferView": 3,
      "componentType": 5126,
      "count": 65532,
      "max": [
        0.9997519254684448,
        0.9999955296516418,
        0.999956488609314,
        1.0
      ],
      "min": [
        -0.9999954700469971,
        -0.9999407529830933,
        -0.999983549118042,
        -1.0
      ],
      "type": "VEC4"
    },
    {
      "bufferView": 1,
      "componentType": 5126,
      "count": 65532,
      "max": [
        0.9996140003204346,
        0.9996169805526733
      ],
      "min": [
        0.0003859999997075647,
        0.00038301944732666016
      ],
      "type": "VEC2"
    },
    {
      "bufferView": 1,
      "byteOffset": 524256,
      "componentType": 5126,
      "count": 65532,
      "max": [
        0.9996140003204346,
        0.9996169805526733
      ],
      "min": [
        0.0003859999997075647,
        0.00038301944732666016
      ],
      "type": "VEC2"
    },
    {
      "bufferView": 1,
      "byteOffset": 1048512,
      "componentType": 5126,
      "count": 65532,
      "max": [
        0.9996140003204346,
        0.9996169805526733
      ],
      "min": [
        0.0003859999997075647,
        0.00038301944732666016
      ],
      "type": "VEC2"
    },
    {
      "bufferView": 1,
      "byteOffset": 1572768,
      "componentType": 5126,
      "count": 65532,
      "max": [
        0.9996140003204346,
        0.9996169805526733
      ],
      "min": [
        0.0003859999997075647,
        0.00038301944732666016
      ],
      "type": "VEC2"
    },
    {
      "bufferView": 0,
      "componentType": 5125,
      "count": 281331,
      "type": "SCALAR"
    },
    {
      "bufferView": 2,
      "byteOffset": 1572768,
      "componentType": 5126,
      "count": 65532,
      "max": [
        0.4920490086078644,
        0.26611799001693726,
        0.548192024230957
      ],
      "min": [
        -0.4532800018787384,
        -0.3010759949684143,
        -0.4825589954853058
      ],
      "type": "VEC3"
    },
    {
      "bufferView": 2,
      "byteOffset": 2359152,
      "componentType": 5126,
      "count": 65532,
      "max": [
        0.9999884366989136,
        0.9997696280479431,
        0.9999911785125732
      ],
      "min": [
        -0.9999991655349731,
        -0.9998732805252075,
        -0.9998955726623535
      ],
      "type": "VEC3"
    },
    {
      "bufferView": 3,
      "byteOffset": 1048512,
      "componentType": 5126,
      "count": 65532,
      "max": [
        0.9999974966049194,
        0.9999825358390808,
        0.9999686479568481,
        1.0
      ],
      "min": [
        -0.9999963641166687,
        -0.9998721480369568,
        -0.9999675154685974,
        -1.0
      ],
      "type": "VEC4"
    },
    {
      "bufferView": 1,
      "byteOffset": 2097024,
      "componentType": 5126,
      "count": 65532,
      "max": [
        0.9996140003204346,
        0.9996169805526733
      ],
      "min": [
        0.0003859999997075647,
        0.00038301944732666016
      ],
      "type": "VEC2"
    },
    {
      "bufferView": 1,
      "byteOffset": 2621280,
      "componentType": 5126,
      "count": 65532,
      "max": [
        0.9996140003204346,
        0.9996169805526733
      ],
      "min": [
        0.0003859999997075647,
        0.00038301944732666016
      ],
      "type": "VEC2"
    },
    {
      "bufferView": 1,
      "byteOffset": 3145536,
      "componentType": 5126,
      "count": 65532,
      "max": [
        0.9996140003204346,
        0.9996169805526733
      ],
      "min": [
        0.0003859999997075647,
        0.00038301944732666016
      ],
      "type": "VEC2"
    },
    {
      "bufferView": 1,
      "byteOffset": 3669792,
      "componentType": 5126,
      "count": 65532,
      "max": [
        0.9996140003204346,
        0.9996169805526733
      ],
      "min": [
        0.0003859999997075647,
        0.00038301944732666016
      ],
      "type": "VEC2"
    },
    {
      "bufferView": 0,
      "byteOffset": 1125324,
      "componentType": 5125,
      "count": 306174,
      "type": "SCALAR"
    },
    {
      "bufferView": 2,
      "byteOffset": 3145536,
      "componentType": 5126,
      "count": 65532,
      "max": [
        0.3103809952735901,
        0.33012598752975464,
        0.5249670147895813
      ],
      "min": [
        -0.47997400164604187,
        -0.3280870020389557,
        -0.5274900197982788
      ],
      "type": "VEC3"
    },
    {
      "bufferView": 2,
      "byteOffset": 3931920,
      "componentType": 5126,
      "count": 65532,
      "max": [
        0.9999501705169678,
        0.999983549118042,
        0.9999579191207886
      ],
      "min": [
        -0.9999662637710571,
        -0.9998645782470703,
        -0.9999581575393677
      ],
      "type": "VEC3"
    },
    {
      "bufferView": 3,
      "byteOffset": 2097024,
      "componentType": 5126,
      "count": 65532,
      "max": [
        0.9999788999557495,
        0.9998042583465576,
        0.9999687671661377,
        1.0
      ],
      "min": [
        -0.9999952912330627,
        -0.9999960660934448,
        -0.9999922513961792,
        -1.0
      ],
      "type": "VEC4"
    },
    {
      "bufferView": 1,
      "byteOffset": 4194048,
      "componentType": 5126,
      "count": 65532,
      "max": [
        0.9996140003204346,
        0.9996169805526733
      ],
      "min": [
        0.0003859999997075647,
        0.00038301944732666016
      ],
      "type": "VEC2"
    },
    {
      "bufferView": 1,
      "byteOffset": 4718304,
      "componentType": 5126,
      "count": 65532,
      "max": [
        0.9996140003204346,
        0.9996169805526733
      ],
      "min": [
        0.0003859999997075647,
        0.00038301944732666016
      ],
      "type": "VEC2"
    },
    {
      "bufferView": 1,
      "byteOffset": 5242560,
      "componentType": 5126,
      "count": 65532,
      "max": [
        0.9996140003204346,
        0.9996169805526733
      ],
      "min": [
        0.0003859999997075647,
        0.00038301944732666016
      ],
      "type": "VEC2"
    },
    {
      "bufferView": 1,
      "byteOffset": 5766816,
      "componentType": 5126,
      "count": 65532,
      "max": [
        0.9996140003204346,
        0.9996169805526733
      ],
      "min": [
        0.0003859999997075647,
        0.00038301944732666016
      ],
      "type": "VEC2"
    },
    {
      "bufferView": 0,
      "byteOffset": 2350020,
      "componentType": 5125,
      "count": 293184,
      "type": "SCALAR"
    },
    {
      "bufferView": 2,
      "byteOffset": 4718304,
      "componentType": 5126,
      "count": 65532,
      "max": [
        -0.04652399942278862,
        0.3278619945049286,
        0.5257139801979065
      ],
      "min": [
        -0.5134729743003845,
        -0.2783690094947815,
        -0.5285890102386475
      ],
      "type": "VEC3"
    },
    {
      "bufferView": 2,
      "byteOffset": 5504688,
      "componentType": 5126,
      "count": 65532,
      "max": [
        1.0,
        0.9995860457420349,
        0.9999187588691711
      ],
      "min": [
        -0.9999986886978149,
        -0.9999997615814209,
        -0.999968409538269
      ],
      "type": "VEC3"
    },
    {
      "bufferView": 3,
      "byteOffset": 3145536,
      "componentType": 5126,
      "count": 65532,
      "max": [
        0.9999582171440125,
        0.9999315142631531,
        0.9999979734420776,
        1.0
      ],
      "min": [
        -0.9999588131904602,
        -0.9999781847000122,
        -0.9999861121177673,
        -1.0
      ],
      "type": "VEC4"
    },
    {
      "bufferView": 1,
      "byteOffset": 6291072,
      "componentType": 5126,
      "count": 65532,
      "max": [
        0.9996140003204346,
        0.9996169805526733
      ],
      "min": [
        0.0003859999997075647,
        0.00038301944732666016
      ],
      "type": "VEC2"
    },
    {
      "bufferView": 1,
      "byteOffset": 6815328,
      "componentType": 5126,
      "count": 65532,
      "max": [
        0.9996140003204346,
        0.9996169805526733
      ],
      "min": [
        0.0003859999997075647,
        0.00038301944732666016
      ],
      "type": "VEC2"
    },
    {
      "bufferView": 1,
      "byteOffset": 7339584,
      "componentType": 5126,
      "count": 65532,
      "max": [
        0.9996140003204346,
        0.9996169805526733
      ],
      "min": [
        0.0003859999997075647,
        0.00038301944732666016
      ],
      "type": "VEC2"
    },
    {
      "bufferView": 1,
      "byteOffset": 7863840,
      "componentType": 5126,
      "count": 65532,
      "max": [
        0.9996140003204346,
        0.9996169805526733
      ],
      "min": [
        0.0003859999997075647,
        0.00038301944732666016
      ],
      "type": "VEC2"
    },
    {
      "bufferView": 0,
      "byteOffset": 3522756,
      "componentType": 5125,
      "count": 276693,
      "type": "SCALAR"
    },
    {
      "bufferView": 2,
      "byteOffset": 6291072,
      "componentType": 5126,
      "count": 65532,
      "max": [
        0.20406100153923035,
        0.31687599420547485,
        -0.06263399869203568
      ],
      "min": [
        -0.4460879862308502,
        -0.3139060139656067,
        -0.5499770045280457
      ],
      "type": "VEC3"
    },
    {
      "bufferView": 2,
      "byteOffset": 7077456,
      "componentType": 5126,
      "count": 65532,
      "max": [
        0.9998079538345337,
        0.9999880790710449,
        0.999994158744812
      ],
      "min": [
        -0.999983549118042,
        -0.9999531507492065,
        -0.9999936819076538
      ],
      "type": "VEC3"
    },
    {
      "bufferView": 3,
      "byteOffset": 4194048,
      "componentType": 5126,
      "count": 65532,
      "max": [
        0.9999884963035583,
        0.9999942183494568,
        0.9999611377716064,
        1.0
      ],
      "min": [
        -0.9997318387031555,
        -0.9999066591262817,
        -0.9999516010284424,
        -1.0
      ],
      "type": "VEC4"
    },
    {
      "bufferView": 1,
      "byteOffset": 8388096,
      "componentType": 5126,
      "count": 65532,
      "max": [
        0.9996140003204346,
        0.9996169805526733
      ],
      "min": [
        0.0003859999997075647,
        0.00038301944732666016
      ],
      "type": "VEC2"
    },
    {
      "bufferView": 1,
      "byteOffset": 8912352,
      "componentType": 5126,
      "count": 65532,
      "max": [
        0.9996140003204346,
        0.9996169805526733
      ],
      "min": [
        0.0003859999997075647,
        0.00038301944732666016
      ],
      "type": "VEC2"
    },
    {
      "bufferView": 1,
      "byteOffset": 9436608,
      "componentType": 5126,
      "count": 65532,
      "max": [
        0.9996140003204346,
        0.9996169805526733
      ],
      "min": [
        0.0003859999997075647,
        0.00038301944732666016
      ],
      "type": "VEC2"
    },
    {
      "bufferView": 1,
      "byteOffset": 9960864,
      "componentType": 5126,
      "count": 65532,
      "max": [
        0.9996140003204346,
        0.9996169805526733
      ],
      "min": [
        0.0003859999997075647,
        0.00038301944732666016
      ],
      "type": "VEC2"
    },
    {
      "bufferView": 0,
      "byteOffset": 4629528,
      "componentType": 5125,
      "count": 285480,
      "type": "SCALAR"
    },
    {
      "bufferView": 2,
      "byteOffset": 7863840,
      "componentType": 5126,
      "count": 13698,
      "max": [
        0.21596099436283112,
        -0.07953000068664551,
        -0.24729099869728088
      ],
      "min": [
        -0.33561399579048157,
        -0.32782799005508423,
        -0.5401059985160828
      ],
      "type": "VEC3"
    },
    {
      "bufferView": 2,
      "byteOffset": 8028216,
      "componentType": 5126,
      "count": 13698,
      "max": [
        0.9999154806137085,
        0.9982859492301941,
        0.9852519631385803
      ],
      "min": [
        -0.9998486042022705,
        -0.9994985461235046,
        -0.999987006187439
      ],
      "type": "VEC3"
    },
    {
      "bufferView": 3,
      "byteOffset": 5242560,
      "componentType": 5126,
      "count": 13698,
      "max": [
        0.9998682141304016,
        0.9996631145477295,
        0.9998535513877869,
        1.0
      ],
      "min": [
        -0.999981701374054,
        -0.9993227124214172,
        -0.9997678399085999,
        -1.0
      ],
      "type": "VEC4"
    },
    {
      "bufferView": 1,
      "byteOffset": 10485120,
      "componentType": 5126,
      "count": 13698,
      "max": [
        0.9996140003204346,
        0.9988510012626648
      ],
      "min": [
        0.0003859999997075647,
        0.00038301944732666016
      ],
      "type": "VEC2"
    },
    {
      "bufferView": 1,
      "byteOffset": 10594704,
      "componentType": 5126,
      "count": 13698,
      "max": [
        0.9996140003204346,
        0.9988510012626648
      ],
      "min": [
        0.0003859999997075647,
        0.00038301944732666016
      ],
      "type": "VEC2"
    },
    {
      "bufferView": 1,
      "byteOffset": 10704288,
      "componentType": 5126,
      "count": 13698,
      "max": [
        0.9996140003204346,
        0.9988510012626648
      ],
      "min": [
        0.0003859999997075647,
        0.00038301944732666016
      ],
      "type": "VEC2"
    },
    {
      "bufferView": 1,
      "byteOffset": 10813872,
      "componentType": 5126,
      "count": 13698,
      "max": [
        0.9996140003204346,
        0.9988510012626648
      ],
      "min": [
        0.0003859999997075647,
        0.00038301944732666016
      ],
      "type": "VEC2"
    },
    {
      "bufferView": 0,
      "byteOffset": 5771448,
      "componentType": 5125,
      "count": 57108,
      "type": "SCALAR"
    }
  ],
  "asset": {
    "extras": {
      "author": "ARTEL_3D (https://sketchfab.com/IK_TALEB)",
      "license": "CC-BY-4.0 (http://creativecommons.org/licenses/by/4.0/)",
      "source": "https://sketchfab.com/3d-models/scarab-ring-49ed795c9c084881a535285f8a02c5ed",
      "title": "Scarab Ring"
    },
    "generator": "Sketchfab-16.67.0",
    "version": "2.0"
  },
  "bufferViews": [
    {
      "buffer": 0,
      "byteLength": 5999880,
      "name": "floatBufferViews",
      "target": 34963
    },
    {
      "buffer": 0,
      "byteLength": 10923456,
      "byteOffset": 5999880,
      "byteStride": 8,
      "name": "floatBufferViews",
      "target": 34962
    },
    {
      "buffer": 0,
      "byteLength": 8192592,
      "byteOffset": 16923336,
      "byteStride": 12,
      "name": "floatBufferViews",
      "target": 34962
    },
    {
      "buffer": 0,
      "byteLength": 5461728,
      "byteOffset": 25115928,
      "byteStride": 16,
      "name": "floatBufferViews",
      "target": 34962
    }
  ],
  "buffers": [
    {
      "byteLength": 30577656,
      "uri": "scene.bin"
    }
  ],
  "extensionsUsed": [
    "KHR_materials_specular"
  ],
  "images": [
    {
      "uri": "textures/Material.001_baseColor.png"
    },
    {
      "uri": "textures/Material.001_metallicRoughness.png"
    },
    {
      "uri": "textures/Material.001_normal.png"
    }
  ],
  "materials": [
    {
      "doubleSided": true,
      "extensions": {
        "KHR_materials_specular": {
          "specularColorFactor": [
            1.0,
            1.0,
            1.0
          ],
          "specularFactor": 1.0
        }
      },
      "name": "Material.001",
      "normalTexture": {
        "index": 2,
        "texCoord": 2
      },
      "pbrMetallicRoughness": {
        "baseColorTexture": {
          "index": 0
        },
        "metallicRoughnessTexture": {
          "index": 1,
          "texCoord": 1
        }
      }
    }
  ],
  "meshes": [
    {
      "name": "Object_0",
      "primitives": [
        {
          "attributes": {
            "NORMAL": 1,
            "POSITION": 0,
            "TANGENT": 2,
            "TEXCOORD_0": 3,
            "TEXCOORD_1": 4,
            "TEXCOORD_2": 5,
            "TEXCOORD_3": 6
          },
          "indices": 7,
          "material": 0,
          "mode": 4
        }
      ]
    },
    {
      "name": "Object_1",
      "primitives": [
        {
          "attributes": {
            "NORMAL": 9,
            "POSITION": 8,
            "TANGENT": 10,
            "TEXCOORD_0": 11,
            "TEXCOORD_1": 12,
            "TEXCOORD_2": 13,
            "TEXCOORD_3": 14
          },
          "indices": 15,
          "material": 0,
          "mode": 4
        }
      ]
    },
    {
      "name": "Object_2",
      "primitives": [
        {
          "attributes": {
            "NORMAL": 17,
            "POSITION": 16,
            "TANGENT": 18,
            "TEXCOORD_0": 19,
            "TEXCOORD_1": 20,
            "TEXCOORD_2": 21,
            "TEXCOORD_3": 22
          },
          "indices": 23,
          "material": 0,
          "mode": 4
        }
      ]
    },
    {
      "name": "Object_3",
      "primitives": [
        {
          "attributes": {
            "NORMAL": 25,
            "POSITION": 24,
            "TANGENT": 26,
            "TEXCOORD_0": 27,
            "TEXCOORD_1": 28,
            "TEXCOORD_2": 29,
            "TEXCOORD_3": 30
          },
          "indices": 31,
          "material": 0,
          "mode": 4
        }
      ]
    },
    {
      "name": "Object_4",
      "primitives": [
        {
          "attributes": {
            "NORMAL": 33,
            "POSITION": 32,
            "TANGENT": 34,
            "TEXCOORD_0": 35,
            "TEXCOORD_1": 36,
            "TEXCOORD_2": 37,
            "TEXCOORD_3": 38
          },
          "indices": 39,
          "material": 0,
          "mode": 4
        }
      ]
    },
    {
      "name": "Object_5",
      "primitives": [
        {
          "attributes": {
            "NORMAL": 41,
            "POSITION": 40,
            "TANGENT": 42,
            "TEXCOORD_0": 43,
            "TEXCOORD_1": 44,
            "TEXCOORD_2": 45,
            "TEXCOORD_3": 46
          },
          "indices": 47,
          "material": 0,
          "mode": 4
        }
      ]
    }
  ],
  "nodes": [
    {
      "children": [
        1
      ],
      "matrix": [
        1.0,
        0.0,
        0.0,
        0.0,
        0.0,
        2.220446049250313e-16,
        -1.0,
        0.0,
        0.0,
        1.0,
        2.220446049250313e-16,
        0.0,
        0.0,
        0.0,
        0.0,
        1.0
      ],
      "name": "Sketchfab_model"
    },
    {
      "children": [
        2
      ],
      "name": "root"
    },
    {
      "children": [
        3
      ],
      "matrix": [
        1.0,
        0.0,
        0.0,
        0.0,
        0.0,
        2.220446049250313e-16,
        1.0,
        0.0,
        0.0,
        -1.0,
        2.220446049250313e-16,
        0.0,
        0.0,
        0.0,
        0.0,
        1.0
      ],
      "name": "GLTF_SceneRootNode"
    },
    {
      "children": [
        4,
        5,
        6,
        7,
        8,
        9
      ],
      "matrix": [
        1.0,
        0.0,
        0.0,
        0.0,
        0.0,
        0.0,
        1.0,
        0.0,
        0.0,
        -1.0,
        0.0,
        0.0,
        0.0,
        0.0,
        0.0,
        1.0
      ],
      "name": "texture_pbr_v128_0"
    },
    {
      "mesh": 0,
      "name": "Object_4"
    },
    {
      "mesh": 1,
      "name": "Object_5"
    },
    {
      "mesh": 2,
      "name": "Object_6"
    },
    {
      "mesh": 3,
      "name": "Object_7"
    },
    {
      "mesh": 4,
      "name": "Object_8"
    },
    {
      "mesh": 5,
      "name": "Object_9"
    }
  ],
  "samplers": [
    {
      "magFilter": 9729,
      "minFilter": 9987,
      "wrapS": 10497,
      "wrapT": 10497
    }
  ],
  "scene": 0,
  "scenes": [
    {
      "name": "Sketchfab_Scene",
      "nodes": [
        0
      ]
    }
  ],
  "textures": [
    {
      "sampler": 0,
      "source": 0
    },
    {
      "sampler": 0,
      "source": 1
    },
    {
      "sampler": 0,
      "source": 2
    }
  ]
}
